<svg width="25" height="25" fill="none" xmlns="http://www.w3.org/2000/svg"><circle cx="12.5" cy="12.5" r="12.5" fill="#2E2F31"/><g clip-path="url(#a)"><path d="M12.5 5a7.5 7.5 0 00-1.812 14.78v-4.988H9.142V12.5h1.546v-.988c0-2.552 1.156-3.736 3.662-3.736.475 0 1.295.094 1.63.187v2.077a9.64 9.64 0 00-.866-.028c-1.23 0-1.705.466-1.705 1.677v.811h2.45l-.421 2.292h-2.029v5.153A7.5 7.5 0 0012.5 5z" fill="#FAF7F7"/></g><defs><clipPath id="a"><path fill="#fff" transform="translate(5 5)" d="M0 0H15V15H0z"/></clipPath></defs></svg>