<svg width="24" height="24" fill="none" xmlns="http://www.w3.org/2000/svg"><circle cx="12" cy="12" r="10" fill="#F7F7F7"/><path d="M11.963 0C5.356 0 0 5.356 0 11.963c0 6.607 5.356 11.963 11.963 11.963 6.608 0 11.964-5.356 11.964-11.963C23.927 5.357 18.57.001 11.963.001V0zm5.487 17.254a.745.745 0 01-1.026.247c-2.809-1.715-6.345-2.104-10.51-1.152a.746.746 0 01-.331-1.455c4.557-1.041 8.466-.593 11.62 1.335a.746.746 0 01.247 1.025zm1.464-3.258a.933.933 0 01-1.283.308c-3.216-1.977-8.118-2.55-11.921-1.395a.934.934 0 01-1.164-.621.934.934 0 01.622-1.163c4.345-1.319 9.746-.68 13.439 1.59.438.27.577.843.307 1.281zm.126-3.392c-3.856-2.29-10.218-2.5-13.899-1.383a1.119 1.119 0 11-.65-2.141c4.226-1.283 11.251-1.035 15.69 1.6a1.118 1.118 0 11-1.14 1.924h-.001z" fill="#2E2F31"/></svg>