<svg xmlns="http://www.w3.org/2000/svg" width="43" height="42" fill="none"><path d="M21.5 1.5c11.08 0 20 8.764 20 19.5s-8.92 19.5-20 19.5-20-8.764-20-19.5 8.92-19.5 20-19.5z" stroke="#FAF7F7" stroke-width="3"></path><path d="M23.215 29.733v10.242c7.386 0 10.068-2.576 10.486-3.865V21.037c-7.28-.567-10.024 5.561-10.486 8.696z" fill="#0743B6"></path><path d="M21.566 37.362c-.132-5.132-3.18-15.77-14.312-17.264.044 6.141 2.968 18.192 14.312 17.264z" fill="#0E234C"></path><path d="M26.628 15.653L21.814 25.96c-3.852-3.092-4.507-5.669-4.353-6.57-.58-5.257 4.023-11.338 6.398-13.721 4.537 2.267 3.737 7.6 2.77 9.984z" fill="#2284FF"></path></svg>